<svg xmlns="http://www.w3.org/2000/svg" viewBox="0 0 30 30"><g id="ELEMENTS"><path d="M20.17,24.5H9.83A4.33,4.33,0,0,1,5.5,20.17V9.83A4.33,4.33,0,0,1,9.83,5.5H20.17A4.33,4.33,0,0,1,24.5,9.83V20.17A4.33,4.33,0,0,1,20.17,24.5ZM9.83,7.73a2.1,2.1,0,0,0-2.1,2.1V20.17a2.1,2.1,0,0,0,2.1,2.1H20.17a2.1,2.1,0,0,0,2.1-2.1V9.83a2.1,2.1,0,0,0-2.1-2.1Z"/><path d="M20.46,16H16.12v4.34a1.12,1.12,0,0,1-2.24,0V16H9.54a1.12,1.12,0,0,1,0-2.23h4.34V9.42a1.12,1.12,0,0,1,2.24,0v4.35h4.34a1.12,1.12,0,0,1,0,2.23Z"/></g></svg>